<svg id="Layer_1" data-name="Layer 1" xmlns="http://www.w3.org/2000/svg" viewBox="0 0 916.45 170.99"><defs><style>.cls-1{fill:#1c9638;}.cls-2{fill:#144a94;}.cls-3{fill:#154993;}</style></defs><title>LOGOS</title><path class="cls-1" d="M333,65.66H317.47l-2.68,11.41h-13l16-53.08H333l16,53.08H335.7Zm-2.22-9.12-5.6-23.43-5.59,23.43Z"/><path class="cls-1" d="M438.18,41.3c0,12.33-8.74,18.08-21,18.08h-5.74V77.07H398.88V24H416C429.75,24,438.18,29.66,438.18,41.3Zm-12.95,0c0-5.66-3.14-8.35-9.34-8.35h-4.44V50.34h4.67C421.78,50.34,425.23,48,425.23,41.3Z"/><path class="cls-1" d="M530.08,41.3c0,12.33-8.73,18.08-21,18.08h-5.75V77.07H490.79V24H508C521.66,24,530.08,29.66,530.08,41.3Zm-12.94,0c0-5.66-3.14-8.35-9.34-8.35h-4.45V50.34H508C513.69,50.34,517.14,48,517.14,41.3Z"/><path class="cls-1" d="M595.26,67.11h20.68l-1.3,10H582.7V24h12.56Z"/><path class="cls-1" d="M680.51,77.07H667.94V24h12.57Z"/><path class="cls-1" d="M767.59,33H748.9V45.67h16.31v8.81H748.9V68h20v9H736.34V24h32.55Z"/><path class="cls-1" d="M864.93,50.26c0,21.37-12.86,26.81-26.42,26.81H822.58V24h14.78C851.53,24,864.93,28.36,864.93,50.26ZM835.14,33.11V68h4.14c7.58,0,12.63-3.6,12.63-17.7s-5.43-17.15-12.79-17.15Z"/><path class="cls-2" d="M326.26,132.16c0,10.06-7.78,13.51-18.81,13.51H294.36V98.2h11.23c11.72,0,18.6,3.72,18.6,12,0,5.85-4.27,9.44-8.88,10.4C320.82,121.55,326.26,124.1,326.26,132.16Zm-25.35-28.79v14.95h7.16c5.31,0,9.44-2.62,9.44-7.65,0-5.86-4.2-7.3-11.23-7.3Zm18.46,28.79c0-6.68-5-8.81-10.68-8.81h-7.78v17.08h6.54C314.34,140.43,319.37,139.05,319.37,132.16Z"/><path class="cls-2" d="M363.19,129.68H340c.62,8.41,4.54,11.65,9.78,11.65a15.32,15.32,0,0,0,9.44-3.17L362,142a19.79,19.79,0,0,1-12.67,4.54c-10.13,0-16-7.09-16-18.6,0-11.3,5.71-19.36,15.08-19.36,9.79,0,14.95,6.82,14.95,17.92C363.32,127.69,363.25,128.86,363.19,129.68Zm-6.14-5.09c0-7.1-2.82-11-8.54-11-4.82,0-8,3.38-8.47,11.44h17Z"/><path class="cls-2" d="M401.42,119.63v26h-6.34V120.52c0-5.44-2.34-7-5.79-7-3.92,0-6.75,2.55-9.16,6.34v25.84h-6.34V94.83l6.34-.69v20.25c2.62-3.58,6.2-5.86,10.75-5.86C397.49,108.53,401.42,112.81,401.42,119.63Z"/><path class="cls-2" d="M441.65,142.08l-1.45,4.41c-3.65-.41-6-1.86-7.09-5.44a12.37,12.37,0,0,1-10.82,5.44c-7.23,0-11.57-4.47-11.57-11,0-7.79,5.85-12,16-12h5.58v-2.68c0-5.24-2.55-7.17-7.58-7.17a32.53,32.53,0,0,0-9.78,1.93L413.34,111a35.56,35.56,0,0,1,12.53-2.48c8.75,0,12.75,4.48,12.75,12.06v16.6C438.62,140.36,439.79,141.4,441.65,142.08Zm-9.37-6v-8.34h-4.75c-6.69,0-10.06,2.48-10.06,7.45,0,4.27,2.13,6.54,6.27,6.54C427.46,141.74,430.21,139.88,432.28,136.09Z"/><path class="cls-2" d="M465.28,145.67h-7.65l-12.54-36.31H452L461.49,140l9.44-30.66h6.68Z"/><path class="cls-2" d="M492.42,96.27a4.45,4.45,0,1,1-4.48-4.34A4.22,4.22,0,0,1,492.42,96.27Zm-1.24,49.4h-6.34V109.36h6.34Z"/><path class="cls-2" d="M534,127.48c0,11.23-5.92,19-16.19,19s-16.19-7.44-16.19-18.94c0-11.23,5.93-19,16.26-19S534,116,534,127.48Zm-25.56.07c0,9.44,3.31,13.85,9.37,13.85s9.37-4.41,9.37-13.92-3.31-13.85-9.3-13.85S508.47,118,508.47,127.55Z"/><path class="cls-2" d="M563.86,109l-1.17,6.2a11.21,11.21,0,0,0-3.17-.42c-4.55,0-7.17,3.24-8.68,10.2v20.74H544.5V109.36h5.44l.62,7.37c1.93-5.44,5.31-8.2,9.72-8.2A15.18,15.18,0,0,1,563.86,109Z"/><path class="cls-2" d="M597.2,142.08l-1.44,4.41c-3.66-.41-6-1.86-7.1-5.44a12.37,12.37,0,0,1-10.82,5.44c-7.23,0-11.57-4.47-11.57-11,0-7.79,5.86-12,16-12h5.58v-2.68c0-5.24-2.55-7.17-7.58-7.17a32.53,32.53,0,0,0-9.78,1.93L568.89,111a35.62,35.62,0,0,1,12.54-2.48c8.75,0,12.74,4.48,12.74,12.06v16.6C594.17,140.36,595.34,141.4,597.2,142.08Zm-9.37-6v-8.34h-4.75c-6.68,0-10.06,2.48-10.06,7.45,0,4.27,2.14,6.54,6.27,6.54C583,141.74,585.77,139.88,587.83,136.09Z"/><path class="cls-2" d="M606.85,138.5V94.76l6.33-.76v44.36c0,1.93.62,2.9,2.28,2.9a6.1,6.1,0,0,0,2.34-.42l1.65,4.41a10.63,10.63,0,0,1-5,1.24C609.81,146.49,606.85,143.67,606.85,138.5Z"/><path class="cls-2" d="M670.43,103.44H652.52v16.19H668v5.16h-15.5v20.88H646V98.2h25.21Z"/><path class="cls-2" d="M689.1,96.27a4.45,4.45,0,1,1-4.48-4.34A4.22,4.22,0,0,1,689.1,96.27Zm-1.24,49.4h-6.34V109.36h6.34Z"/><path class="cls-2" d="M728.57,119.63v26h-6.33V120.52c0-5.44-2.21-7-5.72-7-4.07,0-6.82,2.55-9.23,6.41v25.77H701V109.36h5.44l.55,5.37a13.17,13.17,0,0,1,11.09-6.2C724.72,108.53,728.57,112.74,728.57,119.63Z"/><path class="cls-2" d="M768.81,142.08l-1.45,4.41c-3.65-.41-6-1.86-7.1-5.44a12.36,12.36,0,0,1-10.81,5.44c-7.24,0-11.58-4.47-11.58-11,0-7.79,5.86-12,16-12h5.58v-2.68c0-5.24-2.55-7.17-7.58-7.17a32.47,32.47,0,0,0-9.78,1.93L740.49,111A35.62,35.62,0,0,1,753,108.53c8.75,0,12.74,4.48,12.74,12.06v16.6C765.77,140.36,767,141.4,768.81,142.08Zm-9.37-6v-8.34h-4.76c-6.68,0-10.06,2.48-10.06,7.45,0,4.27,2.14,6.54,6.27,6.54C754.61,141.74,757.37,139.88,759.44,136.09Z"/><path class="cls-2" d="M806.42,119.63v26h-6.34V120.52c0-5.44-2.2-7-5.72-7-4.06,0-6.82,2.55-9.23,6.41v25.77h-6.34V109.36h5.45l.55,5.37a13.17,13.17,0,0,1,11.09-6.2C802.56,108.53,806.42,112.74,806.42,119.63Z"/><path class="cls-2" d="M843.48,112.46l-3,4a12.42,12.42,0,0,0-7.78-2.69c-5.72,0-9.3,4.48-9.3,13.92s3.58,13.43,9.3,13.43c3,0,5.16-1,7.92-2.76l2.89,4.14a17.12,17.12,0,0,1-11.09,4c-9.78,0-15.84-7-15.84-18.67,0-11.57,6-19.29,15.84-19.29A16.15,16.15,0,0,1,843.48,112.46Z"/><path class="cls-2" d="M878.68,129.68H855.54c.62,8.41,4.54,11.65,9.78,11.65a15.32,15.32,0,0,0,9.44-3.17l2.75,3.79a19.79,19.79,0,0,1-12.67,4.54c-10.13,0-16.05-7.09-16.05-18.6,0-11.3,5.71-19.36,15.08-19.36,9.79,0,15,6.82,15,17.92C878.82,127.69,878.75,128.86,878.68,129.68Zm-6.13-5.09c0-7.1-2.82-11-8.54-11-4.82,0-8,3.38-8.47,11.44h17Z"/><polygon class="cls-1" points="33.54 145.88 56.12 145.88 114.84 49.27 151.47 111 176.31 69.1 147.71 69.1 121.36 23.68 106.81 23.68 33.54 145.88"/><path class="cls-3" d="M226.06,64.33c-1.93,8.59-5.14,12.8-5.14,12.8s11.87.2,20.64,8.78h26.28V64.33Z"/><path class="cls-3" d="M204.86,45.26h0Z"/><path class="cls-3" d="M204.86,23.68v.37c10.82,2,20.84,11.46,23.72,21.21h62.35V23.68Z"/><path class="cls-3" d="M114,100.84l-27.1,45H215.21s27.6,2,27.6-31.62S213,80.14,213,80.14s7.34-9.6,6.49-29.45c0-12.55-14.27-27-28.57-27H144.7l12.55,20.83h33.62s10.48-.77,10.48,13.05c0,14.3-20,40.14-20,40.14h26s15.37-.56,15.37,15.31c0,16.81-14.31,15.81-14.31,15.81h-79Z"/></svg>