<svg xmlns="http://www.w3.org/2000/svg" viewBox="0 0 322.2 118"><defs><style>.cls-1{isolation:isolate;}.cls-2{fill:#333;stroke:#1f273a;stroke-miterlimit:10;stroke-width:0.57px;}.cls-3{fill:#1f273a;}.cls-4{fill:#4eb8e8;mix-blend-mode:multiply;}.cls-5{fill:#f9b658;}.cls-6{fill:#7dc6b3;}.cls-7{fill:#8b924c;}.cls-8{fill:#00a1a7;}</style></defs><title>LOGOS</title><g class="cls-1"><g id="Layer_1" data-name="Layer 1"><path class="cls-2" d="M101.43,80.2h10.85v1h-9.6v6.66h8.78v1h-8.78v7.07h10.15v1h-11.4Z"/><path class="cls-2" d="M119.59,91l-4.78-5.77h1.29l4.13,5.06,4.11-5.06h1.23L120.94,91l4.84,6h-1.29l-4.26-5.21L116,96.94h-1.25Z"/><path class="cls-2" d="M129.35,85.25l.36,1.36h0a5.1,5.1,0,0,1,1.84-1.19,5.92,5.92,0,0,1,2.27-.47,5.55,5.55,0,0,1,4.27,1.58A6.31,6.31,0,0,1,139.59,91a6.69,6.69,0,0,1-1,3.88,4.91,4.91,0,0,1-2.26,1.89,6.91,6.91,0,0,1-2.51.49,5.8,5.8,0,0,1-4.14-1.44h0l0,2.28v4.67h-1.14V85.25Zm9,5.77a5.59,5.59,0,0,0-1.19-3.81,4.24,4.24,0,0,0-3.35-1.35,5.34,5.34,0,0,0-2.39.55,4.78,4.78,0,0,0-1.75,1.4v7A6.78,6.78,0,0,0,131.64,96a6,6,0,0,0,2.18.37,5.23,5.23,0,0,0,3.12-1C137.91,94.59,138.39,93.16,138.39,91Z"/><path class="cls-2" d="M142.69,91a6.62,6.62,0,0,1,.73-3.19,5.17,5.17,0,0,1,2-2.1,5.55,5.55,0,0,1,2.85-.73A5.18,5.18,0,0,1,152,86.29a5.67,5.67,0,0,1,1.39,4.24V91h-9.49A5.33,5.33,0,0,0,145.27,95a5.42,5.42,0,0,0,3.88,1.3,9.71,9.71,0,0,0,3.76-.67v.94a8.61,8.61,0,0,1-3.76.65,6.53,6.53,0,0,1-4.78-1.64A6.18,6.18,0,0,1,142.69,91Zm5.57-5.13a4.1,4.1,0,0,0-3,1.18,4.65,4.65,0,0,0-1.36,3h8.29a4.58,4.58,0,0,0-1-3.16A3.75,3.75,0,0,0,148.26,85.84Z"/><path class="cls-2" d="M158.69,85.25l.2,2.08h0a5.78,5.78,0,0,1,2.22-1.71,7,7,0,0,1,3-.67h.37v1h-.37a6.45,6.45,0,0,0-3,.75,5.35,5.35,0,0,0-2.18,2v8.29h-1.14V85.25Z"/><path class="cls-2" d="M167.7,94.15v-8h-2.63v-1h2.63V82.12h1.14v3.13h4.07v1h-4.07v7.66a2.53,2.53,0,0,0,.6,1.91,2.66,2.66,0,0,0,1.87.56,6.32,6.32,0,0,0,1.81-.21V97a6.83,6.83,0,0,1-2,.26,3.72,3.72,0,0,1-2.5-.77A2.92,2.92,0,0,1,167.7,94.15Z"/><path class="cls-2" d="M181,96.35v-1.2a10,10,0,0,0,2.28.73,12.8,12.8,0,0,0,2.62.35,7.86,7.86,0,0,0,4-.84,3.05,3.05,0,0,0,1.41-2.86,2.77,2.77,0,0,0-.47-1.67,3.36,3.36,0,0,0-1.3-1.07,16.25,16.25,0,0,0-3-.91,26.13,26.13,0,0,1-3-.82,4.49,4.49,0,0,1-1.89-1.27,3.34,3.34,0,0,1-.77-2.31,4,4,0,0,1,1.71-3.35,7.35,7.35,0,0,1,4.49-1.27,13.64,13.64,0,0,1,3.56.47c.47.15.89.3,1.26.46V82l-1.49-.57a10.83,10.83,0,0,0-1.5-.38,11.17,11.17,0,0,0-1.91-.18,5.56,5.56,0,0,0-3.65,1,3.3,3.3,0,0,0-1.19,2.66,2.45,2.45,0,0,0,.52,1.66,3.27,3.27,0,0,0,1.4.92,24.69,24.69,0,0,0,2.63.75,30.58,30.58,0,0,1,3.08.89,4.82,4.82,0,0,1,1.93,1.3,3.5,3.5,0,0,1,.82,2.43A4.09,4.09,0,0,1,190.78,96a8.49,8.49,0,0,1-5,1.25,13,13,0,0,1-2.79-.31A9.85,9.85,0,0,1,181,96.35Z"/><path class="cls-2" d="M196.85,81.3h1.31v1.2h-1.31Zm.08,4h1.14V96.94h-1.14Z"/><path class="cls-2" d="M204.05,85.25l.2,1.9h0a6,6,0,0,1,2-1.62,5.36,5.36,0,0,1,2.48-.58A4.28,4.28,0,0,1,211.92,86,4.38,4.38,0,0,1,213,89.23v7.71h-1.12V89.35a3.88,3.88,0,0,0-.77-2.62,3.21,3.21,0,0,0-2.51-.87,4.62,4.62,0,0,0-2.35.66,6.37,6.37,0,0,0-2,1.78v8.64h-1.14V85.25Z"/><path class="cls-2" d="M217.63,92.46V85.25h1.14v7.46a3.39,3.39,0,0,0,1,2.77,4.14,4.14,0,0,0,2.76.85,4.82,4.82,0,0,0,2.1-.41,2.89,2.89,0,0,0,1.27-1.14,4.32,4.32,0,0,0,.42-2.12V85.25h1.14v7.23a6.83,6.83,0,0,1-.29,2.21,3.49,3.49,0,0,1-1,1.41,4.32,4.32,0,0,1-1.58.88,7.1,7.1,0,0,1-2,.27,7,7,0,0,1-2.18-.31,4.56,4.56,0,0,1-1.58-.89,3.42,3.42,0,0,1-.93-1.34A6.76,6.76,0,0,1,217.63,92.46Z"/><path class="cls-2" d="M231.21,96.65v-1a8.14,8.14,0,0,0,3.61.74,4.64,4.64,0,0,0,2.69-.69,2.25,2.25,0,0,0,1-2,1.74,1.74,0,0,0-.66-1.46,5.35,5.35,0,0,0-2.19-.84,17.41,17.41,0,0,1-2.31-.63,3.63,3.63,0,0,1-1.46-1,2.36,2.36,0,0,1-.57-1.65,2.67,2.67,0,0,1,1.25-2.44,5.86,5.86,0,0,1,3.2-.79,8.34,8.34,0,0,1,3.32.66v1a9.58,9.58,0,0,0-1.6-.56,7.48,7.48,0,0,0-1.8-.19,4.21,4.21,0,0,0-2.44.58,1.93,1.93,0,0,0-.84,1.67,1.65,1.65,0,0,0,.39,1.17,2.55,2.55,0,0,0,1.08.64c.46.15,1.14.33,2.06.53a6.72,6.72,0,0,1,2.8,1.15,2.52,2.52,0,0,1,.88,2.06,3.13,3.13,0,0,1-1.29,2.63,5.58,5.58,0,0,1-3.5,1A8.47,8.47,0,0,1,231.21,96.65Z"/><path class="cls-2" d="M247.48,88.71a8.76,8.76,0,0,1,1.21-4.63A8.13,8.13,0,0,1,252.08,81a11.07,11.07,0,0,1,5-1.1,13.89,13.89,0,0,1,2.32.2,6.29,6.29,0,0,1,1.68.47v1a13.16,13.16,0,0,0-3.89-.69,10,10,0,0,0-4.24.89,7.08,7.08,0,0,0-3,2.65,7.88,7.88,0,0,0-1.13,4.31,7,7,0,0,0,2.25,5.55q2.24,1.93,6.45,1.94a10.86,10.86,0,0,0,3.79-.68v1a7.18,7.18,0,0,1-1.78.5,13,13,0,0,1-2.19.17c-3.17,0-5.61-.73-7.31-2.21A8,8,0,0,1,247.48,88.71Z"/><path class="cls-2" d="M264.33,93.59A3.07,3.07,0,0,1,265.62,91a5.32,5.32,0,0,1,3.32-1,13.43,13.43,0,0,1,4.08.69v-1.5a3.14,3.14,0,0,0-1-2.52,4.7,4.7,0,0,0-3.13-.85,12.5,12.5,0,0,0-3.41.59v-.94a5,5,0,0,1,1.43-.39,11.11,11.11,0,0,1,2-.17,6.16,6.16,0,0,1,4,1.06,3.93,3.93,0,0,1,1.29,3.22v4c0,.82,0,2.07.12,3.74h-1l-.2-1.36H273a5.67,5.67,0,0,1-1.91,1.17,6.37,6.37,0,0,1-2.43.5,5,5,0,0,1-3.14-.91A3.24,3.24,0,0,1,264.33,93.59Zm8.69.93V91.61a13.29,13.29,0,0,0-1.91-.5A15.42,15.42,0,0,0,268.8,91a3.88,3.88,0,0,0-2.43.68,2.33,2.33,0,0,0-.87,1.94,2.47,2.47,0,0,0,.86,2.08,3.6,3.6,0,0,0,2.3.68,5.47,5.47,0,0,0,2.57-.54A7.12,7.12,0,0,0,273,94.52Z"/><path class="cls-2" d="M280.14,85.25l.2,2.08h0a5.74,5.74,0,0,1,2.23-1.71,6.91,6.91,0,0,1,3-.67h.37v1h-.37a6.48,6.48,0,0,0-3,.75,5.35,5.35,0,0,0-2.18,2v8.29h-1.14V85.25Z"/><path class="cls-2" d="M287.79,91a6.73,6.73,0,0,1,.72-3.19,5.24,5.24,0,0,1,2-2.1,5.6,5.6,0,0,1,2.85-.73,5.17,5.17,0,0,1,3.73,1.34,5.67,5.67,0,0,1,1.39,4.24V91H289A5.33,5.33,0,0,0,290.36,95a5.44,5.44,0,0,0,3.89,1.3,9.69,9.69,0,0,0,3.75-.67v.94a8.59,8.59,0,0,1-3.75.65,6.55,6.55,0,0,1-4.79-1.64A6.18,6.18,0,0,1,287.79,91Zm5.56-5.13a4.1,4.1,0,0,0-3,1.18,4.65,4.65,0,0,0-1.36,3h8.3a4.68,4.68,0,0,0-1-3.16A3.78,3.78,0,0,0,293.35,85.84Z"/><path class="cls-3" d="M140.14,70.93h12.23l-21.62-51h-10l-21.63,51H111.3l4.36-11h20.12ZM119.33,50.66l6.39-16.15,6.4,16.15Z"/><path class="cls-3" d="M230.34,24.23a6.18,6.18,0,1,1-12.36,0,6.19,6.19,0,1,1,12.36,0Zm-11.55,46.7V34.86h10.69V70.93Z"/><path class="cls-3" d="M199.87,50l15.58-14.33H202c-3.94,3.43-8.11,6.87-12.14,10.31V15.2H179.2V54.56c-2.61,3.49-7.25,7.74-10,7.64-3-.11-5.89-1.5-6.14-5.93V44.08h10.37V36.23h-9V24.16H152.92V36.23h-7.55v7.85h7.55V57.42c0,9.49,5.38,14.37,14.37,14.37,3.77,0,9.05-2.14,11.91-4.48v3.62h10.69V58A32.72,32.72,0,0,0,192,55.22l10.49,15.71h14.16Z"/><path class="cls-3" d="M279.66,71.05a22.89,22.89,0,0,1-5.11-1.7A13.06,13.06,0,0,1,271,67.16l6.16-6.79c4.79,4.33,7,3.58,8.54,3.58,2,0,3.87-1.31,4.2-2.28.58-1.72-.47-2.87-2.22-3.44-2.39-.77-8.18-1.47-10.6-2.95a10.61,10.61,0,0,1-3.43-3.21,11.25,11.25,0,0,1-1.5-6.37c0-2.43,1.8-7.71,6.14-9.58a16.14,16.14,0,0,1,6.83-1.59,23.16,23.16,0,0,1,5.06.19,23.56,23.56,0,0,1,4.66,1.61,22.55,22.55,0,0,1,4.11,2.53l-5,7c-1.41-.89-7.34-4.9-10.51-2.54a3,3,0,0,0-1.28,2.4,2.81,2.81,0,0,0,2.61,2.66c.75.15,7.71,2.09,9.29,2.56,6,1.78,6.85,6.51,6.85,9.5a13.29,13.29,0,0,1-2,6.66,10.1,10.1,0,0,1-5.92,4,32.37,32.37,0,0,1-7.58.87A27.1,27.1,0,0,1,279.66,71.05Z"/><path class="cls-3" d="M234.18,70.93V34.88h10.4V40c2.15-2.88,6.53-5.94,10.78-5.94,8.39,0,12.85,5.83,12.38,17.36l-.48,19.56H257.4V52.69c0-5.34-2.14-8.87-6.14-9.06-5.12-.24-6.72,4.37-6.72,9.64V70.93Z"/><path class="cls-4" d="M86.31,89.83H50.87a3.61,3.61,0,0,1-3.27-5.14l4.85-10.42a4.66,4.66,0,0,1,4.22-2.69H80.49a4.63,4.63,0,0,1,4.21,2.68l4.87,10.45A3.6,3.6,0,0,1,86.31,89.83Z"/><path class="cls-5" d="M59.42,32.49H47.09a3.59,3.59,0,0,0-3.21,2L13.67,95.32a3.42,3.42,0,0,0,3.07,5H29.41a3.44,3.44,0,0,0,3.07-1.9l30.15-60.7A3.58,3.58,0,0,0,59.42,32.49Z"/><path class="cls-6" d="M92.78,89.83H79.2a2.81,2.81,0,0,1-2.52-1.57L42.2,18.34A4.2,4.2,0,0,1,46,12.27H58a4.2,4.2,0,0,1,3.81,2.42L95.32,85.82A2.81,2.81,0,0,1,92.78,89.83Z"/><path class="cls-7" d="M59.42,32.49H49.18l8,16.19,5.47-11A3.58,3.58,0,0,0,59.42,32.49Z"/><path class="cls-8" d="M89.57,84.71,84.7,74.26a4.63,4.63,0,0,0-4.21-2.68h-12l8.23,16.68a2.81,2.81,0,0,0,2.52,1.57h7.11A3.6,3.6,0,0,0,89.57,84.71Z"/></g></g></svg>