<svg id="Layer_1" data-name="Layer 1" xmlns="http://www.w3.org/2000/svg" viewBox="0 0 366.46 169.33"><defs><style>.cls-1{fill:#80bde3;}.cls-2{fill:#4083bf;}</style></defs><title>LOGOS</title><path class="cls-1" d="M133.4,65.87H134c1.45-.17,3.21-.36,5.2-.56,9.67-1,16.86-1.4,20.79-1.62,14.89-.86,10.33-.8,31.64-2.06,6.15-.37,15.4-.87,33.64-1.84,22-1.18,26.33-1.4,31.49-1.62,10.06-.44,18.45-.73,24.4-.91,4.41-2.87,9.93-6.56,16.23-11-22.67.41-41.79,1.12-56.23,1.77-28.31,1.28-52,3-73,4.42-10,.7-18.27,1.32-24.14,1.76.79-.57,2-1.38,3.43-2.25a53,53,0,0,1,14.33-5.7,86.79,86.79,0,0,1,10.5-2.06,105.19,105.19,0,0,1,16-.78A129.29,129.29,0,0,1,211.12,46a78.91,78.91,0,0,0-7.66-2.65c-.75-.22-3-.84-6-1.47a179.76,179.76,0,0,0-19.63-2.75,257.81,257.81,0,0,0-35.13-.29c-7.15.44-13.11,1.11-17.36,1.67l-16.59,3.43q2.7.72,5.5,1.57c4.29,1.31,8.32,2.74,12.07,4.22A108.46,108.46,0,0,0,99.75,66.75c3.46-.24,7-.43,10.59-.59C118.33,65.83,126,65.75,133.4,65.87Z"/><path class="cls-2" d="M281.14,57.26c-5.95.18-14.34.47-24.4.91-5.16.22-9.52.44-31.49,1.62-18.24,1-27.49,1.47-33.64,1.84-21.31,1.26-16.75,1.2-31.64,2.06-3.93.22-11.12.63-20.79,1.62-2,.2-3.75.39-5.2.56H135c7.68.61,13.59.57,19,1.28,1.56.2,8.21,1.07,17.37,2.64,8.92,1.54,15.46,2.91,17.07,3.24,8.47,1.75,23.69,4.17,53.28,7.07,3.7-1.87,8.66-4.44,14.42-7.66,11.23-6.26,19.5-11.61,24.73-15Z"/><path class="cls-2" d="M132.59,34.67c11.8-12.52,30.54-20.61,51.64-20.61,22.17,0,43.28,11.51,54.92,25.12C227.32,21.7,203.84,7.39,178.74,7.39c-24.17,0-45.4,10.87-57.52,27.28Z"/><path class="cls-2" d="M227.79,129.14c-11.8,12.52-30.54,20.61-51.64,20.61-22.18,0-43.28-11.51-54.93-25.12,11.84,17.48,35.31,31.79,60.42,31.79,24.17,0,45.4-10.88,57.51-27.28Z"/><path class="cls-1" d="M67.17,78a248.65,248.65,0,0,1,29.44-4.71,272.91,272.91,0,0,1,53.28.29c4.75.47,17.2,2.47,42.09,6.48,26.27,4.22,24.51,4.15,29.44,4.71a329.88,329.88,0,0,0,50.92,1.47c7.35-.27,14.76-.54,24.8-1.69,9.25-1.06,15.45-2.26,15.53-1.84s-11.48,3.71-21.49,5.88a238.63,238.63,0,0,1-47.68,5.89c-18.54.35-32.12-1.69-52.11-4.71-12.88-1.94-13.09-2.53-37.38-6.47-17.07-2.78-25.8-4.18-35.62-5a332.39,332.39,0,0,0-35.67-1C76.45,77.45,71.14,77.76,67.17,78Z"/><path class="cls-2" d="M40.58,99.78H44.7l6.69,10.32,6.7-10.32H62.2V121.6H58.34V106l-7,10.29h-.12L44.39,106V121.6H40.58Z"/><path class="cls-2" d="M75.66,99.63h3.58l9.68,22H84.83l-2.23-5.27H72.2l-2.26,5.27H66Zm5.53,13.3-3.81-8.72-3.77,8.72Z"/><path class="cls-2" d="M92.69,99.78h9.81a8.89,8.89,0,0,1,6.34,2.18,6.56,6.56,0,0,1,1.83,4.71v.06c0,3.59-2.17,5.74-5.22,6.61l5.94,8.26H106.8L101.4,114H96.56v7.61H92.69Zm9.52,10.82c2.77,0,4.53-1.44,4.53-3.65v-.06c0-2.34-1.7-3.62-4.56-3.62H96.56v7.33Z"/><path class="cls-2" d="M115.63,99.78h3.87V121.6h-3.87Z"/><path class="cls-2" d="M125.38,99.78H129l11.78,15.09V99.78h3.8V121.6h-3.23l-12.13-15.52V121.6h-3.8Z"/><path class="cls-2" d="M150.2,99.78h16.31v3.43H154.07v5.67h11v3.43h-11v5.86h12.6v3.43H150.2Z"/><path class="cls-2" d="M180.21,110.75v-.06a11,11,0,0,1,11.12-11.28,11.49,11.49,0,0,1,8.58,3.46l-1.7,1.81a9.56,9.56,0,0,0-6.91-3c-4.87,0-8.52,3.93-8.52,8.95v.06c0,5,3.68,9,8.52,9,3,0,5-1.16,7.1-3.15l1.64,1.59a11.53,11.53,0,0,1-8.8,3.83A10.92,10.92,0,0,1,180.21,110.75Z"/><path class="cls-2" d="M204.38,99.78h15.9V102H206.86v7.44h12v2.25h-12v7.63h13.57v2.25H204.38Z"/><path class="cls-2" d="M225.43,99.78h2.33l13.86,17.49V99.78H244V121.6h-2l-14.21-17.89V121.6h-2.42Z"/><path class="cls-2" d="M256.07,102.06h-7.38V99.78H266v2.28h-7.38V121.6h-2.52Z"/><path class="cls-2" d="M270.63,99.78h9.45a8.72,8.72,0,0,1,6.26,2.18,6,6,0,0,1,1.69,4.3v.07c0,3.61-2.51,5.73-6,6.35l6.76,8.92h-3.05l-6.38-8.48h-6.28v8.48h-2.48Zm9.23,11.13c3.3,0,5.66-1.69,5.66-4.49v-.06c0-2.68-2.07-4.3-5.62-4.3h-6.79v8.85Z"/><path class="cls-2" d="M301.49,99.63h2.32l10,22h-2.67l-2.58-5.77h-12L294,121.6h-2.55Zm6.12,14-5-11.1-5,11.1Z"/><path class="cls-2" d="M318.18,99.78h2.48v19.54H333v2.28H318.18Z"/></svg>