<svg id="Layer_1" data-name="Layer 1" xmlns="http://www.w3.org/2000/svg" viewBox="0 0 509.24 129.6"><defs><style>.cls-1{fill:#133751;}.cls-2{fill:#79bd5d;}.cls-3{fill:#939598;opacity:0.5;isolation:isolate;}</style></defs><title>s7_dark</title><g id="Layer_2" data-name="Layer 2"><g id="Layer_1-2" data-name="Layer 1-2"><path class="cls-1" d="M35.87,52.37H9.74v8.57H34.62q5.85,0,7.91,2t2.06,7.44v5.47q0,5.45-2.06,7.44c-1.37,1.34-4,2-7.91,2H10c-3.9,0-6.53-.66-7.91-2S0,79.48,0,75.85v-1.1l8.2-1.7v4.72H36.4v-9.1H11.52q-5.82,0-7.85-2t-2-7.43V54.82q0-5.43,2-7.43t7.85-2H34.17c3.75,0,6.33.64,7.76,1.92s2.14,3.56,2.13,6.84V55l-8.19,1.9Z"/><path class="cls-1" d="M56.56,85.29V52.59H91.63v5.78h-27V65.5H80.34v5.63H64.6v8H92v6.11Z"/><path class="cls-1" d="M133.36,58.6H111.87V79h21.49V72.07l8,1.62v3.86q0,4.45-1.78,6.09c-1.19,1.09-3.45,1.64-6.8,1.64H112.4q-5,0-6.72-1.62t-1.78-6.11V60.29q0-4.45,1.76-6.08c1.17-1.09,3.42-1.62,6.74-1.62h20.43q5.05,0,6.81,1.62c1.17,1.08,1.75,3.11,1.76,6.08v3.17l-8,1.17Z"/><path class="cls-1" d="M161.29,52.59V79.17h22.77V52.59h8v25q0,4.45-1.8,6.09t-6.81,1.64H161.86q-5,0-6.74-1.62t-1.76-6.11v-25Z"/><path class="cls-1" d="M204.06,85.29V52.59h29.46q4,0,5.85,1.49t1.82,4.85v7.7q0,3.32-1.82,4.8t-5.85,1.47H229l15.56,12.38H233.15L219.44,72.91h-7.51V85.29Zm26.05-27.07h-18.2v9.06h18.2a4.8,4.8,0,0,0,2.85-.61,2.41,2.41,0,0,0,.78-2V60.86a2.41,2.41,0,0,0-.78-2,4.86,4.86,0,0,0-2.84-.64Z"/><path class="cls-1" d="M253.19,85.29V52.59h7.94v32.7Z"/><path class="cls-1" d="M296.84,58.44V85.29h-8V58.44H273.09V52.59h39.57v5.85Z"/><path class="cls-1" d="M340.56,85.29V70.61l-17.85-18h10.75L345.13,64.8l11.81-12.19h9.36L348.53,70.45V85.29Z"/><path class="cls-1" d="M444.44,9.23A55.56,55.56,0,0,0,389.8,54.72h0l4.59,3.09a50.51,50.51,0,1,1,0,13.91l-1.07.7-3.57,2.4A55.57,55.57,0,1,0,444.44,9.23Z"/><path class="cls-2" d="M444.44,0a64.82,64.82,0,0,0-62.88,49.17l8.24,5.55a55.57,55.57,0,1,1,0,20.13l-8.25,5.55A64.8,64.8,0,1,0,444.44,0Z"/><polygon class="cls-1" points="418.58 42.92 418.58 60.83 429.66 60.83 429.66 51.67 459.4 51.67 433.44 92.17 446.54 92.17 470.81 54.32 470.81 42.92 418.58 42.92"/><polygon class="cls-3" points="367.73 39.87 367.73 39.88 404.71 64.79 367.73 89.67 367.73 89.73 407.26 64.82 367.73 39.87"/></g></g></svg>