<svg id="Layer_1" data-name="Layer 1" xmlns="http://www.w3.org/2000/svg" viewBox="0 0 477.33 143.33"><defs><style>.cls-1{fill:#2683ef;}</style></defs><title>LOGOS</title><path class="cls-1" d="M76.31,13.87a56,56,0,0,0-46.83,86.69h0c.3.45.6.9.91,1.34l.19.27c.56.79,1.14,1.56,1.74,2.32l.24.31c.33.41.66.82,1,1.22l0,0c.66.78,1.34,1.54,2.05,2.28.13.15.26.29.4.43q1.57,1.64,3.28,3.13l.6.52c.54.47,1.1.92,1.66,1.37l.75.59,1,.76.93.66c.47.33,1,.66,1.44,1s.68.45,1,.66l.93.57c.56.34,1.12.66,1.69,1l.84.44c.43.23.87.45,1.31.67l.78.39c.63.3,1.27.59,1.91.86l.77.33,1.72.67.56.21c.68.25,1.37.48,2.06.7l.69.22c.74.22,1.47.43,2.22.63l.42.1c.68.17,1.35.32,2,.47l.58.12c.78.16,1.56.3,2.35.42l.52.08c.72.1,1.45.2,2.18.27l.4,0c.82.08,1.64.14,2.47.19l.57,0c.86,0,1.71.07,2.57.07s1.73,0,2.58-.07l.74,0c.66,0,1.31-.08,2-.15.22,0,.44,0,.66-.06.83-.08,1.66-.19,2.48-.31l.5-.09c.66-.1,1.32-.22,2-.35l.78-.16c.63-.13,1.26-.28,1.89-.43l.56-.14c.77-.2,1.53-.42,2.29-.65l.74-.24c.54-.17,1.08-.35,1.61-.54l.83-.3c.61-.23,1.22-.47,1.82-.72l.78-.33q.87-.37,1.71-.78l.91-.44,1.26-.64.9-.49c.63-.34,1.24-.69,1.85-1.06l.93-.58c.35-.22.7-.44,1-.67s.68-.45,1-.69l.9-.63c.61-.45,1.21-.9,1.81-1.37l.75-.59c.36-.29.72-.6,1.08-.9l.65-.57c.37-.32.73-.65,1.08-1l.47-.44c.73-.7,1.44-1.41,2.14-2.14l.3-.33c.37-.39.73-.79,1.09-1.2l.37-.43a52.92,52.92,0,0,0,3.27-4.19l.2-.28c.34-.48.67-1,1-1.46l.16-.26c1-1.53,1.91-3.12,2.75-4.75,0-.11.11-.21.16-.32.27-.54.54-1.08.8-1.64h0A56,56,0,0,0,76.31,13.87Zm9.87,73.48,3.08,7.86a.71.71,0,0,1-.66,1H81.53a.71.71,0,0,1-.66-1L84,87.35a5.63,5.63,0,1,1,2.23,0Zm38,1.32a16.82,16.82,0,0,0-6.35-4,13.74,13.74,0,0,0-4.17-.54,26.53,26.53,0,0,0-6.34-13.95A27.59,27.59,0,0,0,93.58,62a29.38,29.38,0,0,0-18.12,0c-10,3.42-14.69,11.53-15.94,13.77a29.92,29.92,0,0,0-2.53,6,20,20,0,0,0-15.4-.72,20.46,20.46,0,0,0-10.5,9.6,18.89,18.89,0,0,0-.86,2.09,51.45,51.45,0,1,1,94-4.07Z"/><path class="cls-1" d="M414.44,38.25l.42,65.44h-4.77l-1.1-13a24.05,24.05,0,0,1-8.73,10.94,23.8,23.8,0,0,1-13.62,3.9q-11.56,0-18.15-7.29t-6.58-21v-39h5.67V76.77c0,7.51,1.64,14.67,5,18.59s8.13,5.73,14.34,5.73c6.65,0,12.07-3.63,16-8.32s5.84-11,5.84-18.94V38.25Z"/><path class="cls-1" d="M444.08,41.61c3.92-2.55,9.74-3.72,15.16-3.08v4.71a8.33,8.33,0,0,0-2.28-.48c-8.53-.15-12.19,4.22-16,8.76s-4.49,11.92-5.55,20v34h-4.71V55l-.92-14.76h4.84L435.25,53A23.62,23.62,0,0,1,444.08,41.61Z"/><path class="cls-1" d="M344.28,40.16V55.34C338.86,45,328.55,37.93,316.72,38.25,297.3,38.78,285.1,53.35,285.1,72s12.68,33.72,31.62,33.72c11.83,0,22.14-6.93,27.56-17.18v47.06h4.52V40.16ZM317.15,101.3C302.17,101.3,290,88.17,290,72s12.15-29.32,27.13-29.32S344.28,55.78,344.28,72,332.13,101.3,317.15,101.3Z"/><path class="cls-1" d="M193.48,51l4.16-2.36a20.32,20.32,0,0,0-4.07-5,21.62,21.62,0,0,0-9.88-4.8c-2.12-.49-9.56-2.23-16.93,1.72A17.41,17.41,0,0,0,159.6,47a16.65,16.65,0,0,0-2.08,11,16.11,16.11,0,0,0,3.71,7.88c2.22,2.49,4.63,3.51,7.7,4.8,1.73.73,2.1.73,10.78,3.17,4.26,1.21,5.13,1.47,6.43,2.18a13.67,13.67,0,0,1,6.07,5.34,12.49,12.49,0,0,1,.9,9.24A13.43,13.43,0,0,1,188,97.71a16.62,16.62,0,0,1-7.88,3.08,21.68,21.68,0,0,1-8.69-.45,22.36,22.36,0,0,1-12.95-9.15l-4,2.72a22.13,22.13,0,0,0,2.81,3.71,23.61,23.61,0,0,0,7.15,5.17,28.29,28.29,0,0,0,13.59,2.8c3.41-.16,8.42-.4,13.13-4.07a19.1,19.1,0,0,0,7.07-12,17.88,17.88,0,0,0-1.27-9.6,15.79,15.79,0,0,0-4.53-6.07,19.12,19.12,0,0,0-4.17-2.35c-2-.9-3.72-1.45-9.78-3a56.64,56.64,0,0,1-8.69-2.63A11.91,11.91,0,0,1,166,63.84a11.17,11.17,0,0,1-3.35-6.07,11.54,11.54,0,0,1,.46-7.15,12.3,12.3,0,0,1,6.34-6.16,16.52,16.52,0,0,1,7-1.63,20.37,20.37,0,0,1,6.25.63,18.2,18.2,0,0,1,6.34,2.9A17.94,17.94,0,0,1,193.48,51Z"/><path class="cls-1" d="M271.7,72.23C271.7,56,264.8,38.5,242.33,38c-17.75-.4-30.65,14.52-30.65,33.71V72c0,20.88,14.43,34,31.92,34a31.31,31.31,0,0,0,26.17-13.43l-3.73-3a26.29,26.29,0,0,1-21.69,11.79c-15.61.12-25.54-9.67-27.6-28.54H271.7ZM244.4,61.1a.46.46,0,0,1-.43.63h-4.56a.46.46,0,0,1-.43-.63L241,56a3.64,3.64,0,1,1,1.44,0Z"/></svg>