<svg id="Layer_1" data-name="Layer 1" xmlns="http://www.w3.org/2000/svg" viewBox="0 0 372.26 85.33"><defs><style>.cls-1{fill:#0eb0a5;}</style></defs><title>LOGOS</title><path class="cls-1" d="M28,14H69.67v9.73H53.54V64.07H43V23.72H28Z"/><path class="cls-1" d="M113.62,64.07V25.37h10.92v5.45c2.27-3.1,6.87-6.38,11.34-6.38,8.81,0,13.5,6.25,13,18.63l-.5,21H138V44.49c0-5.73-2.26-9.53-6.46-9.73-5.37-.25-7.06,4.7-7.06,10.35v19Z"/><rect class="cls-1" x="158.45" y="25.32" width="11.09" height="38.75"/><rect class="cls-1" x="157.9" y="11.32" width="12.2" height="9.5"/><path class="cls-1" d="M197.63,24c8.26,0,11.87,1.87,16,6.5L207,37.94a9.4,9.4,0,0,0-8.33-4.5c-6.57-.12-9.63,5.41-9.63,11.27s3.57,10,9.13,10c3.94,0,6.77-1.73,9.31-4.19l6.31,6.31c-2.41,3.55-7.3,7.19-16,7.19-11.78,0-18.94-7.63-19.62-19.21C177.46,33.7,185.7,24,197.63,24Z"/><polygon class="cls-1" points="262.63 14.44 262.63 34.23 242.72 34.23 242.72 14.44 231.63 14.44 231.63 64.07 242.72 64.07 242.72 44.15 262.63 44.15 262.63 64.07 273.72 64.07 273.72 14.44 262.63 14.44"/><path class="cls-1" d="M338.18,56.14l-5.06-4.39a25.3,25.3,0,0,0,4.51-14.43c0-14.36-12-26-26.75-26s-26.75,11.64-26.75,26,12,26,26.75,26a27.2,27.2,0,0,0,14.65-4.25l5.76,5ZM311,53.32c-8.33,0-15.08-7.17-15.08-16s6.75-16,15.08-16S326,28.48,326,37.32a16.6,16.6,0,0,1-1.52,7l-8-7-6.88,7.93,7.61,6.61A14.27,14.27,0,0,1,311,53.32Z"/><path class="cls-1" d="M101,30.25a4.1,4.1,0,0,0,1.1-2.62,4.15,4.15,0,0,0-8-1.83A19.73,19.73,0,0,1,101,30.25Z"/><circle class="cls-1" cx="78.76" cy="5.01" r="0.98"/><circle class="cls-1" cx="78.99" cy="15.22" r="1.12"/><circle class="cls-1" cx="95.69" cy="18.23" r="0.79"/><circle class="cls-1" cx="87.76" cy="9.93" r="1.69"/><circle class="cls-1" cx="95.69" cy="14.1" r="1.69"/><circle class="cls-1" cx="78.99" cy="21.4" r="2.08"/><circle class="cls-1" cx="87.76" cy="18.23" r="3.9"/><path class="cls-1" d="M106.89,39.11a2.56,2.56,0,0,0-.73.09,19.3,19.3,0,0,1,.67,4.89,2.49,2.49,0,0,0,.06-5Z"/><path class="cls-1" d="M106.83,44.09h-.14a2.49,2.49,0,0,1-.53-4.9,19.73,19.73,0,0,0-5.12-9,4.11,4.11,0,0,1-3.22,1.37,4.17,4.17,0,0,1-4-4.32,4.34,4.34,0,0,1,.36-1.5,19.8,19.8,0,1,0,12.65,18.46C106.84,44.2,106.83,44.15,106.83,44.09ZM79,30.51A.79.79,0,1,1,79,32.08.79.79,0,1,1,79,30.51Zm8,23.23a9.49,9.49,0,1,1,9.48-9.48A9.48,9.48,0,0,1,87,53.74Zm10,1.61a1.61,1.61,0,1,1,1.67-1.54A1.6,1.6,0,0,1,97.08,55.35Z"/></svg>