<svg xmlns="http://www.w3.org/2000/svg" viewBox="0 0 595.28 125.5"><defs><style>.cls-1{isolation:isolate;}.cls-2{fill:#ff5454;}.cls-3{fill:#fff;}.cls-4{fill:#3a393d;}.cls-5,.cls-6{fill:#d9d9d9;}.cls-5{mix-blend-mode:multiply;}</style></defs><title>LOGOS</title><g class="cls-1"><g id="Layer_1" data-name="Layer 1"><path class="cls-2" d="M156.39,19.2H55.64A14.62,14.62,0,0,0,41,33.81V84.58a14.6,14.6,0,0,0,7.57,12.8v21.7a1.4,1.4,0,0,0,2.21,1.15l27.45-21h78.14A14.62,14.62,0,0,0,171,84.58V33.81A14.61,14.61,0,0,0,156.39,19.2Z"/><polygon class="cls-3" points="134.79 45.8 124.8 68.8 144.77 68.8 134.79 45.8"/><polygon class="cls-3" points="106.01 20.57 96.03 43.57 116 43.57 106.01 20.57"/><polygon class="cls-3" points="77.12 45.8 67.14 68.8 87.11 68.8 77.12 45.8"/><polygon class="cls-3" points="92.63 46.45 92.63 51.07 96.03 51.07 96.03 68.8 116 68.8 116 51.07 119.25 51.07 119.25 46.45 92.63 46.45"/><polygon class="cls-3" points="133.38 72.09 133.38 77.21 127.5 77.21 127.5 72.09 116.5 72.09 116.5 77.21 111.44 77.21 111.44 72.09 100.44 72.09 100.44 77.21 95 77.21 95 72.09 84 72.09 84 77.21 78.75 77.21 78.75 72.09 67.75 72.09 67.75 85.21 78.75 91.78 78.75 99.19 133.38 99.19 133.38 91.96 144.38 85.21 144.38 72.09 133.38 72.09"/><path class="cls-4" d="M225.33,19.2,212.74,99H200.36L187.77,19.2h10.31l8.47,60.9L215,19.2Z"/><path class="cls-4" d="M245.94,99q-12.42,0-12.42-13.56V32.87q0-13.68,12.31-13.67h9.86Q268,19.2,268,32.87V85.44Q268,99,255.58,99Zm2.46-9.67h5.25q4.07,0,4.07-4.67V33.53c0-3.11-1.54-4.66-4.6-4.66H248.3q-4.5,0-4.5,4.66V84.66Q243.8,89.32,248.4,89.33Z"/><path class="cls-4" d="M312.5,80.33v5.11Q312.5,99,300.16,99H293.5q-12.35,0-12.34-13.56V32.76q0-13.56,12.34-13.56h6.66q12.33,0,12.34,13.56v9H302.2V33.53q0-4.66-4.62-4.66h-2c-2.72,0-4.08,1.55-4.64,5.23V85.23c.56,2.54,1.92,4.1,4.64,4.1h2.58q4.08,0,4.08-4.67V80.33Z"/><path class="cls-4" d="M334.29,99H324.06V32.87q0-13.68,12.26-13.67H344q12.25,0,12.26,13.67V99H346V69.77H334.29ZM346,60.1V33.53q0-4.66-4.48-4.66h-2.77c-3,0-4.48,1.55-4.48,4.66V60.1Z"/><path class="cls-2" d="M417,99H406.81V32.87q0-13.68,12.26-13.67h7.67Q439,19.2,439,32.87V99H428.77V69.77H417Zm11.73-38.9V33.53q0-4.66-4.48-4.66h-2.77c-3,0-4.48,1.55-4.48,4.66V60.1Z"/><path class="cls-2" d="M387.77,28.87V99H377.1V28.87H366.88V19.2H398v9.67Z"/><path class="cls-2" d="M477.77,99H452V19.2h10.85V89.33h14.92Z"/><path class="cls-2" d="M486.08,99V19.2h26.41v9.67H496.74V53.1h14v9.67h-14V89.33h15.75V99Z"/><path class="cls-2" d="M543.14,40.65v-7q0-4.77-4.68-4.77h-1.68q-4.57,0-4.57,4.77V46.87a3.93,3.93,0,0,0,.89,3,22.22,22.22,0,0,0,2.9,2l10.16,5.45a47.83,47.83,0,0,1,4.74,2.94,7.6,7.6,0,0,1,2.17,2.56q.78,1.5.78,5.73v17Q553.85,99,540.91,99h-6.58Q521.5,99,521.5,84.33v-4h10.71v4.33q0,4.66,4.8,4.67h1.89q4.25,0,4.24-4.67V71.1a3.89,3.89,0,0,0-.89-3,22.52,22.52,0,0,0-2.9-2L529.2,60.43a31.73,31.73,0,0,1-4.86-3,6.87,6.87,0,0,1-2.17-3.17,15.7,15.7,0,0,1-.67-5V32.87q0-13.68,12.83-13.67H541q12.84,0,12.83,13.67v7.78Z"/><path class="cls-2" d="M106,51.49h0a3.78,3.78,0,0,1,3.78,3.78V63.7a0,0,0,0,1,0,0h-7.63a0,0,0,0,1,0,0V55.34A3.85,3.85,0,0,1,106,51.49Z"/><path class="cls-5" d="M107,51.64a3.8,3.8,0,0,0-4.86,3.7V63.7h2V55.34A3.84,3.84,0,0,1,107,51.64Z"/><polygon class="cls-6" points="106.01 20.57 96.03 43.57 101.56 43.57 106.01 20.57"/><polygon class="cls-6" points="134.79 45.8 124.8 68.8 130.33 68.8 134.79 45.8"/><polygon class="cls-6" points="77.12 45.8 67.14 68.8 72.67 68.8 77.12 45.8"/><path class="cls-6" d="M92.63,51.07h7.06l-1.94,2.5V68.8H96V53.73Z"/><path class="cls-6" d="M119.25,51.07h-6.38l3.1,2.25Z"/><path class="cls-6" d="M67.75,85.21l11,6.57,7.94-6.65Z"/><path class="cls-6" d="M144.38,85.21c-3.67,2.19-7.34,4.57-11,6.75-2.65-2.21-5.3-4.61-7.94-6.83Z"/><path class="cls-2" d="M104.78,81.56h0a8.75,8.75,0,0,1,8.75,8.75V99.2a0,0,0,0,1,0,0H95.9a0,0,0,0,1,0,0V90.44A8.88,8.88,0,0,1,104.78,81.56Z"/><path class="cls-5" d="M106,81.65a9.08,9.08,0,0,0-1.17-.09h0a8.88,8.88,0,0,0-8.88,8.88V99.2h2.34V90.44A8.88,8.88,0,0,1,106,81.65Z"/><path class="cls-2" d="M105.81,7.2v9.18a16.09,16.09,0,0,1,1.44-.75,18.22,18.22,0,0,1,5.69-1.5c3.59-.33,3.93.77,9.06,1.07,4.82.27,6.88-.57,7.69-.94A11.94,11.94,0,0,0,132.94,12a11.75,11.75,0,0,1-5.19.25c-1.45-.27-2.8-1-5.44-2.31-2.94-1.52-2.72-1.64-4.37-2.38a15.4,15.4,0,0,0-6.63-1.78A12.18,12.18,0,0,0,105.81,7.2Z"/><path class="cls-5" d="M109.44,6a12.13,12.13,0,0,0-3.63,1.23v9.18a16.09,16.09,0,0,1,1.44-.75,18.93,18.93,0,0,1,2.19-.81Z"/></g></g></svg>