<svg id="Layer_1" data-name="Layer 1" xmlns="http://www.w3.org/2000/svg" viewBox="0 0 595.28 130"><defs><style>.cls-1{fill:#8cc000;}.cls-2{fill:#f8c624;}.cls-3{fill:#e4582b;}.cls-4{fill:#39a1ff;}</style></defs><title>LOGOS</title><circle class="cls-1" cx="93.35" cy="43.35" r="8.92"/><circle class="cls-2" cx="93.35" cy="79.25" r="8.92"/><circle class="cls-3" cx="82.43" cy="61.19" r="8.92"/><circle class="cls-4" cx="71.99" cy="79.25" r="8.92"/><circle class="cls-3" cx="114.7" cy="79.25" r="8.92"/><circle class="cls-4" cx="104.3" cy="61.19" r="8.92"/><path class="cls-3" d="M402.62,34.18a27,27,0,1,0,27,27A27,27,0,0,0,402.62,34.18Zm0,39.95a12.95,12.95,0,1,1,12.94-12.94A12.94,12.94,0,0,1,402.62,74.13Z"/><path class="cls-4" d="M293.28,34.18a26.33,26.33,0,0,0-12.68,3.23V21.69a7,7,0,0,0-14,0l.12,37.18c0,.93,0,5.15,0,5.15h0a26.57,26.57,0,0,0,26.56,24.17,27,27,0,0,0,0-54Zm0,39.95a12.95,12.95,0,1,1,12.94-12.94A12.94,12.94,0,0,1,293.28,74.13Z"/><path class="cls-3" d="M505.68,34.18a23.35,23.35,0,0,0-13,3.74,7,7,0,0,0-13.19,3.26v59.51a7,7,0,1,0,14,0V85a23.47,23.47,0,0,0,12.18,3.22,27,27,0,0,0,0-54Zm0,39.95a12.95,12.95,0,1,1,12.94-12.94A12.94,12.94,0,0,1,505.68,74.13Z"/><path class="cls-4" d="M165.13,70.27l-6.25,13.47c-1.41,3-3.77,4.2-7.07,4.2s-4.94-1.22-6.35-4.2L125.89,44.13a7.47,7.47,0,0,1-.71-3.16A6.16,6.16,0,0,1,127.64,36a8.71,8.71,0,0,1,5.64-2c3.13,0,5,2.89,6,4.77L152.08,65l5.13-10.58c-.94-1.89-2.61-5-3.63-6.88a14.79,14.79,0,0,1-1.89-6,6.32,6.32,0,0,1,2.14-5.18,8.07,8.07,0,0,1,4.67-2.19c3.47-.57,5.73,2.81,6.35,3.91l13.48,27.12,13.19-25.91c1.73-3.25,2.86-4.87,5.41-4.84a9,9,0,0,1,5.66,2,6.21,6.21,0,0,1,2.48,5,6.73,6.73,0,0,1-.82,3.11L184.56,84.18c-1.41,3-2.82,3.82-6.12,3.82s-5.17-1.3-6.58-4.2Z"/><path class="cls-3" d="M341.33,52.72a10.41,10.41,0,0,0-3,7.75c0,3.34.9,7.47,2.87,9.56,5.48,5.78,13.37,3.44,16.5,1.66s5.71-3.67,7-3.67a7,7,0,0,1,5.16,2.33A7.19,7.19,0,0,1,372,75.44c0,3.41-3.64,7-9,9.61a28.78,28.78,0,0,1-12.68,2.8,24.29,24.29,0,0,1-18.44-7.7,26.26,26.26,0,0,1-7.75-18.61q0-10.56,7.75-18.94a23.57,23.57,0,0,1,18.27-7.91,29.37,29.37,0,0,1,12.85,2.91c5.46,2.61,9.2,6.24,9,9-.12,2-.8,4.46-2.38,5.88a6.41,6.41,0,0,1-4.87,1.79c-1.4,0-4.72-2.29-7.58-4S345.79,47.73,341.33,52.72Z"/><path class="cls-3" d="M464.59,37.41c-2.86-1.91-4.25-2.83-8.37-2.93a14.32,14.32,0,0,0-6.55,1.07,6.06,6.06,0,0,0-3.43-1.07h-2a6,6,0,0,0-6,6l.26,41.31a6,6,0,0,0,6,6h2a6,6,0,0,0,6-6V50.26c0-.42-.11-.68.69-1.44,1.6-1.54,3.58.64,5.48,2.27a8.3,8.3,0,0,0,4.42,2.23,6.06,6.06,0,0,0,5.21-1.7,8.39,8.39,0,0,0,2.23-4.74C470.89,43.46,467.91,39.74,464.59,37.41Z"/><path class="cls-4" d="M252.29,63.82c-4.79.45-7.58,9.12-12.91,9.66-3.38.34-7.51.19-8.85-1,2.94-1.72,8.53-4.27,26.18-15.29,2.19-1.74,3.29-3.49,3.29-5.23a9.36,9.36,0,0,0-2.12-6.15c-6.11-6.56-11.25-11.55-22.39-11.55a25.37,25.37,0,0,0-18.79,7.89A26.41,26.41,0,0,0,209,61.32,24.71,24.71,0,0,0,217,80.1a27,27,0,0,0,19.1,7.56,26.69,26.69,0,0,0,12.71-3.06C254.5,81.65,260,74.66,260,71a7.05,7.05,0,0,0-2.07-5A7.61,7.61,0,0,0,252.29,63.82Zm-28.73-3.93c.1-5,4.68-11.17,12.5-11.32a11,11,0,0,1,5.53,1.36l-18,10.32C223.57,60.13,223.55,60,223.56,59.89Z"/></svg>