<svg fill="none" height="19" viewBox="0 0 86 19" width="86" xmlns="http://www.w3.org/2000/svg"><g fill="#335eea"><path d="m1.133 18h10.055v-2.813h-7.079v-13.746h-2.976zm15.375.234c1.394 0 2.637-.445 3.644-1.91l.188 1.676h2.355v-7.102c0-2.859-1.875-4.851-5.062-4.851-2.309 0-3.797 1.031-4.922 2.566l2.191 1.582c.504-.855 1.407-1.652 2.754-1.652 1.512 0 2.309.984 2.309 2.473h-3.047c-2.625 0-4.664.843-4.664 3.386 0 2.45 1.851 3.832 4.254 3.832zm.41-2.414c-1.113 0-1.734-.55-1.734-1.324 0-.738.597-1.418 1.898-1.418h2.883c-.047 1.465-1.418 2.742-3.047 2.742zm8.836 2.18h2.836v-6.41c0-2.04 1.031-2.906 2.637-2.906 1.464 0 2.238 1.113 2.238 2.648v6.668h2.824v-7.031c0-2.45-1.172-4.922-4.242-4.922-1.149 0-2.52.457-3.457 1.605v-1.359h-2.836zm21.012-16.559v6.024c-.809-1.008-2.11-1.418-3.328-1.418-3.247 0-5.028 2.86-5.028 6.094 0 3.27 1.781 6.093 5.074 6.093 1.301 0 2.59-.445 3.399-1.547l.129 1.313h2.66v-16.559zm-2.59 14.204c-1.969 0-2.86-1.536-2.86-3.504 0-1.946.891-3.504 2.86-3.504 1.968 0 2.836 1.535 2.836 3.504 0 1.992-.867 3.504-2.836 3.504zm8.953 2.355h2.86v-3.434l1.804-1.992 3.434 5.426h3.375l-4.864-7.172 4.383-4.535h-3.715l-4.418 4.863v-9.715h-2.86v16.559zm13.008-13.922h2.976v-2.637h-2.976zm.07 13.922h2.836v-11.707h-2.836zm10.395.234c.808 0 1.675-.187 2.109-.351v-2.59c-.387.188-1.031.422-1.629.422-.75 0-1.324-.328-1.324-1.453v-5.578h2.953v-2.391h-2.953v-4.945l-2.79 2.039v2.906h-1.933v2.39h1.887v6.083c0 2.132 1.371 3.468 3.68 3.468zm5.332-.234h2.87v-3.094h-2.87z"/><path d="m1.133 18h-.3v.3h.3zm10.055 0v.3h.3v-.3zm0-2.813h.3v-.3h-.3zm-7.079 0h-.3v.3h.3zm0-13.746h.3v-.3h-.3zm-2.976 0v-.3h-.3v.3zm0 16.859h10.055v-.6h-10.055zm10.355-.3v-2.813h-.6v2.813zm-.3-3.113h-7.079v.6h7.079zm-6.779.3v-13.746h-.6v13.746zm-.3-14.046h-2.976v.6h2.976zm-3.276.3v16.559h.6v-16.559h-.6zm19.32 14.883.298-.033-.09-.8-.456.663.247.17zm.187 1.676-.298.033.03.267h.268zm2.355 0v.3h.3v-.3zm-9.984-9.387-.242-.177-.179.244.245.177zm2.191 1.582-.175.244.267.192.167-.283zm5.063.82v.3h.3v-.3zm0 2.063.3.01.01-.31h-.31zm-3.457 5.456c.729 0 1.436-.116 2.097-.435.664-.32 1.265-.835 1.794-1.605l-.494-.34c-.478.695-1.002 1.135-1.56 1.404-.56.27-1.172.376-1.837.376zm3.346-2.176.188 1.675.596-.066-.188-1.676zm.486 1.942h2.355v-.6h-2.355zm2.655-.3v-7.102h-.6v7.102zm0-7.102c0-1.496-.492-2.79-1.425-3.711s-2.28-1.44-3.937-1.44v.6c1.53 0 2.715.477 3.516 1.267.8.79 1.246 1.921 1.246 3.284zm-5.362-5.151c-2.422 0-3.994 1.093-5.164 2.689l.484.355c1.08-1.474 2.485-2.444 4.68-2.444zm-5.098 3.11 2.192 1.582.35-.487-2.19-1.582zm2.626 1.49c.467-.793 1.284-1.504 2.495-1.504v-.6c-1.484 0-2.472.883-3.012 1.8l.517.305zm2.495-1.504c.688 0 1.177.221 1.498.579.325.362.51.9.51 1.594h.6c0-.795-.212-1.493-.663-1.995-.456-.507-1.12-.778-1.945-.778zm2.309 1.873h-3.047v.6h3.047zm-3.047 0c-1.335 0-2.568.213-3.477.786-.93.587-1.487 1.533-1.487 2.9h.6c0-1.175.463-1.923 1.208-2.393.767-.484 1.866-.693 3.156-.693zm-4.964 3.686c0 1.307.497 2.35 1.331 3.063.829.708 1.966 1.07 3.223 1.07v-.6c-1.146 0-2.135-.33-2.833-.926-.692-.591-1.121-1.464-1.121-2.607zm4.964 1.118c-.51 0-.871-.126-1.098-.306a.878.878 0 0 1 -.336-.718h-.6c0 .474.194.893.563 1.187.362.288.868.437 1.471.437zm-1.434-1.024c0-.284.113-.553.354-.756.244-.206.644-.362 1.244-.362v-.6c-.701 0-1.25.184-1.63.503a1.565 1.565 0 0 0 -.568 1.215zm1.598-1.118h2.883v-.6h-2.883zm2.583-.31c-.041 1.286-1.262 2.452-2.747 2.452v.6c1.773 0 3.294-1.389 3.347-3.032zm6.089 4.932h-.3v.3h.3zm2.836 0v.3h.3v-.3zm4.875 0h-.3v.3h.3zm2.824 0v.3h.3v-.3zm-7.7-10.348h-.3v.842l.533-.652-.232-.19zm0-1.359h.3v-.3h-.3zm-2.835 0v-.3h-.3v.3zm0 12.007h2.836v-.6h-2.836zm3.136-.3v-6.41h-.6v6.41zm0-6.41c0-.972.245-1.612.631-2.009.385-.395.955-.597 1.706-.597v-.6c-.855 0-1.604.231-2.136.779-.531.546-.801 1.36-.801 2.427zm2.337-2.606c.648 0 1.119.242 1.434.636.322.402.504.99.504 1.712h.6c0-.814-.205-1.55-.636-2.087-.438-.547-1.086-.861-1.902-.861zm1.938 2.348v6.668h.6v-6.668zm.3 6.968h2.824v-.6h-2.824zm3.124-.3v-7.031h-.6v7.031zm0-7.031c0-1.267-.302-2.566-1.028-3.557-.735-1.004-1.886-1.665-3.514-1.665v.6c1.443 0 2.412.575 3.03 1.42.628.857.912 2.019.912 3.202zm-4.542-5.222c-1.22 0-2.684.484-3.69 1.716l.465.38c.87-1.067 2.148-1.496 3.225-1.496zm-3.157 1.905v-1.359h-.6v1.36h.6zm-.3-1.659h-2.836v.6h2.836zm-3.136.3v11.707h.6v-11.707zm21.312-4.852v-.3h-.3v.3zm0 6.024-.234.188.534.665v-.853zm.117 9.223.298-.03-.076-.78-.464.632.242.177zm.129 1.312-.299.03.027.27h.272zm2.66 0v.3h.3v-.3zm0-16.559h.3v-.3h-.3zm-3.206 0v6.024h.6v-6.025h-.6zm.534 5.836c-.884-1.101-2.287-1.53-3.563-1.53v.6c1.162 0 2.361.392 3.095 1.306zm-3.563-1.53c-1.722 0-3.065.763-3.97 1.952-.898 1.182-1.357 2.773-1.357 4.442h.6c0-1.566.432-3.022 1.235-4.079.798-1.048 1.968-1.715 3.492-1.715zm-5.327 6.393c0 1.685.459 3.277 1.365 4.455.911 1.186 2.267 1.938 4.01 1.938v-.6c-1.55 0-2.733-.66-3.535-1.703-.808-1.052-1.24-2.506-1.24-4.09zm5.374 6.393c1.365 0 2.759-.468 3.64-1.669l-.483-.355c-.735 1.002-1.92 1.424-3.157 1.424zm3.1-1.817.13 1.312.596-.058-.129-1.313zm.428 1.583h2.66v-.6h-2.66zm2.96-.3v-16.558h-.6v16.559h.6zm-.3-16.859h-2.906v.6h2.906zm-5.496 14.204c-.896 0-1.52-.344-1.928-.893-.417-.561-.632-1.367-.632-2.311h-.6c0 1.024.231 1.97.751 2.669.53.71 1.336 1.134 2.409 1.134v-.6zm-2.56-3.204c0-.933.215-1.739.633-2.303.41-.553 1.032-.901 1.927-.901v-.6c-1.075 0-1.881.43-2.41 1.144-.518.7-.75 1.647-.75 2.66zm2.56-3.204c.895 0 1.512.343 1.914.891.412.56.622 1.366.622 2.313h.6c0-1.023-.225-1.97-.738-2.668-.523-.712-1.325-1.136-2.398-1.136zm2.536 3.204c0 .958-.21 1.763-.621 2.32-.402.544-1.018.883-1.915.883v.6c1.071 0 1.873-.416 2.397-1.126.515-.697.739-1.644.739-2.677zm6.417 5.86h-.3v.3h.3zm2.86 0v.3h.3v-.3zm0-3.434-.223-.201-.078.086v.115h.3zm1.804-1.992.254-.16-.211-.334-.265.293zm3.434 5.426-.254.16.088.14h.166zm3.375 0v.3h.566l-.318-.468zm-4.864-7.172-.215-.208-.17.175.137.201zm4.383-4.535.216.208.491-.508h-.707zm-3.715 0v-.3h-.133l-.089.098zm-4.418 4.863h-.3v.777l.522-.575zm0-9.715h.3v-.3h-.3zm-2.86 0v-.3h-.3v.3zm0 16.859h2.86v-.6h-2.86zm3.16-.3v-3.434h-.6v3.434zm-.077-3.232 1.804-1.992-.444-.403-1.805 1.992zm1.328-2.033 3.434 5.425.507-.32-3.433-5.426-.508.32zm3.688 5.565h3.375v-.6h-3.375zm3.623-.468-4.863-7.172-.497.336 4.863 7.172zm-4.896-6.795 4.383-4.537-.432-.417-4.382 4.536.431.417zm4.167-5.044h-3.715v.6h3.715zm-3.937.098-4.418 4.863.444.404 4.418-4.863zm-3.896 5.065v-9.715h-.6v9.715zm-.3-10.015h-2.86v.6h2.86zm-3.16.3v16.559h.6v-16.559h-.6zm13.309 2.637h-.3v.3h.3zm2.976 0v.3h.3v-.3zm0-2.637h.3v-.3h-.3zm-2.976 0v-.3h-.3v.3zm.07 16.559h-.3v.3h.3zm2.836 0v.3h.3v-.3zm0-11.707h.3v-.3h-.3zm-2.836 0v-.3h-.3v.3zm-.07-1.915h2.976v-.6h-2.976zm3.276-.3v-2.637h-.6v2.637zm-.3-2.937h-2.976v.6h2.976zm-3.276.3v2.637h.6v-2.637zm.37 16.859h2.836v-.6h-2.836zm3.136-.3v-11.707h-.6v11.707zm-.3-12.007h-2.836v.6h2.836zm-3.136.3v11.707h.6v-11.707zm12.804 11.59.106.28.194-.073v-.207zm0-2.59h.3v-.479l-.43.209zm-2.953-6.61v-.3h-.3v.3zm2.953 0v.3h.3v-.3zm0-2.39h.3v-.3h-.3zm-2.953 0h-.3v.3h.3zm0-4.945h.3v-.591l-.477.348zm-2.79 2.039-.176-.242-.123.09v.152h.3zm0 2.906v.3h.3v-.3zm-1.933 0v-.3h-.3v.3zm0 2.39h-.3v.3h.3zm1.887 0h.3v-.3h-.3zm3.68 9.851c.844 0 1.747-.194 2.215-.37l-.212-.562c-.4.151-1.23.332-2.003.332zm2.409-.651v-2.59h-.6v2.59zm-.43-2.86c-.37.179-.967.392-1.499.392v.6c.663 0 1.355-.256 1.76-.452l-.262-.54zm-1.499.392c-.338 0-.58-.075-.738-.224-.155-.145-.286-.414-.286-.93h-.6c0 .61.156 1.068.475 1.368.316.296.737.386 1.149.386zm-1.024-1.153v-5.578h-.6v5.578zm-.3-5.278h2.953v-.6h-2.953zm3.253-.3v-2.391h-.6v2.39h.6zm-.3-2.691h-2.953v.6h2.953zm-2.653.3v-4.945h-.6v4.945zm-.477-5.188-2.79 2.04.355.484 2.789-2.04zm-2.912 2.282v2.906h.6v-2.906h-.6zm.3 2.606h-1.934v.6h1.934zm-2.234.3v2.39h.6v-2.39zm.3 2.69h1.887v-.6h-1.887zm1.587-.3v6.083h.6v-6.082h-.6zm0 6.083c0 1.132.365 2.084 1.067 2.751.7.666 1.701 1.017 2.913 1.017v-.6c-1.098 0-1.937-.316-2.5-.852-.56-.533-.88-1.316-.88-2.316zm9.312 3.234h-.3v.3h.3zm2.87 0v.3h.3v-.3zm0-3.094h.3v-.3h-.3zm-2.87 0v-.3h-.3v.3zm0 3.394h2.87v-.6h-2.87zm3.17-.3v-3.094h-.6v3.094zm-.3-3.394h-2.87v.6h2.87zm-3.17.3v3.094h.6v-3.094z"/></g></svg>