<svg viewBox="0 0 800 236" xmlns="http://www.w3.org/2000/svg" xmlns:xlink="http://www.w3.org/1999/xlink"><symbol id="a" viewBox="0 0 29.09 16.07"><path d="m11.85 1.71h-5.09v14.36h-1.67v-14.36h-5.09v-1.71h11.85zm15.59 1.29-4.9 13.08h-1.54l-4.93-13.51v13.5h-1.65v-16.07h2.07l5.27 13.74 5.24-13.74h2.07v16.07h-1.63z" fill="#27303b"/></symbol><rect fill="#fff" height="230" rx="40" width="794" x="3" y="3"/><path d="m757 236h-714a43 43 0 0 1 -43-43v-150a43 43 0 0 1 43-43h714a43 43 0 0 1 43 43v150a43 43 0 0 1 -43 43zm-714-230a37 37 0 0 0 -37 37v150a37 37 0 0 0 37 37h714a37 37 0 0 0 37-37v-150a37 37 0 0 0 -37-37z" fill="#27303b"/><use height="16.07" transform="translate(737.31 54.59)" width="29.09" xlink:href="#a"/><g fill="#27303b"><path d="m123.33 188.42a36.17 36.17 0 0 1 -13.33-2.32 34.57 34.57 0 0 1 -10.31-6.32 39 39 0 0 1 -7.59-9.39 57.14 57.14 0 0 1 -5.1-11.59 80.14 80.14 0 0 1 -2.92-12.8 92.91 92.91 0 0 1 -1-13.1v-24.62a95.34 95.34 0 0 1 .91-13 77.77 77.77 0 0 1 2.91-12.86 57.74 57.74 0 0 1 5.1-11.63 39.32 39.32 0 0 1 7.5-9.44 33.23 33.23 0 0 1 10.23-6.35 36.17 36.17 0 0 1 13.41-2.33 36.23 36.23 0 0 1 13.42 2.33 33.8 33.8 0 0 1 10.26 6.31 39.05 39.05 0 0 1 7.5 9.39 60.3 60.3 0 0 1 5.11 11.64 72.2 72.2 0 0 1 2.86 12.84 113.4 113.4 0 0 1 1 13.13v24.59a113.22 113.22 0 0 1 -1 13.11 74.51 74.51 0 0 1 -2.81 12.8 61 61 0 0 1 -5 11.59 37.56 37.56 0 0 1 -7.45 9.39 33.71 33.71 0 0 1 -10.26 6.32 36.42 36.42 0 0 1 -13.44 2.31zm-33.46-31.34.15.49a56.61 56.61 0 0 0 4.57 10.57 35.89 35.89 0 0 0 6.86 8.79 31 31 0 0 0 9.48 6 35.57 35.57 0 0 0 25-.09 30.74 30.74 0 0 0 9.57-6.23 36.14 36.14 0 0 0 6.82-9.11 57.24 57.24 0 0 0 4.43-11 78 78 0 0 0 2.41-11.93 114.36 114.36 0 0 0 .83-11.84v-24.45c-.06-3-.23-6-.51-9a81.86 81.86 0 0 0 -1.34-9.14l-.32-1.54zm33.27-101.14a32.81 32.81 0 0 0 -12.62 2.27 30.94 30.94 0 0 0 -9.58 6.18 35.4 35.4 0 0 0 -6.86 9.12 56.64 56.64 0 0 0 -4.43 11 79.85 79.85 0 0 0 -2.46 11.93 93.56 93.56 0 0 0 -.79 11.85v24.43a95.19 95.19 0 0 0 .51 9.77 73.37 73.37 0 0 0 1.72 9.89l.36 1.46 68.01-68.54-.13-.47a55.59 55.59 0 0 0 -4.48-11.09 37.19 37.19 0 0 0 -6.9-9.21 31.1 31.1 0 0 0 -9.62-6.28 32.88 32.88 0 0 0 -12.73-2.31z"/><path d="m274.76 186.59-37.87-47.15-37.67 47.15h-4.37l40-50.12-37.98-47.54h4.46l35.66 44.57 35.57-44.57h4.46l-37.99 47.54 40.01 50.12z"/><path d="m366.36 186.59v-36.45h-64.81v-1.66l63.45-93.89h4.68v92.27h23.14v3.28h-23.18v36.45zm-9.27-114.59-50.25 74.91h59.52v-90.19z"/><path d="m479.2 186.59v-36.45h-64.82v-1.66l63.42-93.89h4.68v92.27h23.13v3.28h-23.13v36.45zm-9.27-114.59-50.25 74.91h59.52v-90.19z"/><path d="m592 186.59v-36.45h-64.78v-1.66l63.41-93.89h4.68v92.27h23.14v3.28h-23.14v36.45zm-9.23-114.59-50.26 74.91h59.49v-90.19z"/><path d="m666.13 186.59 58.21-128.72h-80.16v-3.28h83.71v2.1l-58.55 129.9z"/></g></svg>